<svg viewBox="0 0 1200 675" xmlns="http://www.w3.org/2000/svg" role="img"><title>OMEF Cesoie Forestali — categoria prodotto</title>
<defs>
  <linearGradient id="sky" x1="0" y1="0" x2="0" y2="1"><stop offset="0%" stop-color="#0a1a0e"/><stop offset="100%" stop-color="#1a3520"/></linearGradient>
  <radialGradient id="amberlite" cx="65%" cy="40%" r="45%"><stop offset="0%" stop-color="#d4a050" stop-opacity="0.55"/><stop offset="100%" stop-color="#0a1a0e" stop-opacity="0"/></radialGradient>
  <filter id="blur2"><feGaussianBlur stdDeviation="6"/></filter>
</defs>
<rect width="1200" height="675" fill="url(#sky)"/>
<rect width="1200" height="675" fill="url(#amberlite)"/>
<g opacity="0.18">
  <rect x="0" y="300" width="60" height="375" fill="#0d2010" rx="4"/>
  <rect x="50" y="240" width="45" height="435" fill="#0d2010" rx="3"/>
  <rect x="90" y="280" width="55" height="395" fill="#0d2010" rx="4"/>
  <rect x="150" y="200" width="70" height="475" fill="#0d2010" rx="5"/>
  <rect x="220" y="260" width="40" height="415" fill="#0d2010" rx="3"/>
  <rect x="900" y="220" width="65" height="455" fill="#0d2010" rx="4"/>
  <rect x="960" y="280" width="50" height="395" fill="#0d2010" rx="3"/>
  <rect x="1010" y="240" width="70" height="435" fill="#0d2010" rx="5"/>
  <rect x="1080" y="200" width="55" height="475" fill="#0d2010" rx="4"/>
  <rect x="1130" y="260" width="70" height="415" fill="#0d2010" rx="3"/>
</g>
<g transform="translate(200,80)">
  <rect x="80" y="120" width="420" height="32" rx="8" fill="#1c2e1c" stroke="#2a4030" stroke-width="2" transform="rotate(-22,80,120)"/>
  <rect x="340" y="220" width="280" height="26" rx="7" fill="#162618" stroke="#2a4030" stroke-width="2" transform="rotate(15,340,220)"/>
  <rect x="200" y="145" width="120" height="14" rx="4" fill="#C4924A" opacity="0.7"/>
  <rect x="380" y="198" width="90" height="10" rx="3" fill="#C4924A" opacity="0.5"/>
</g>
<g transform="translate(520,290)">
  <rect x="0" y="0" width="220" height="160" rx="12" fill="#1e3020" stroke="#3a5535" stroke-width="3"/>
  <rect x="12" y="12" width="196" height="136" rx="8" fill="#162418" opacity="0.8"/>
  <rect x="-28" y="30" width="36" height="100" rx="6" fill="#2a3e2a" stroke="#3a5535" stroke-width="2"/>
  <rect x="-20" y="45" width="12" height="70" rx="3" fill="#C4924A" opacity="0.6"/>
  <rect x="212" y="30" width="36" height="100" rx="6" fill="#2a3e2a" stroke="#3a5535" stroke-width="2"/>
  <rect x="220" y="45" width="12" height="70" rx="3" fill="#C4924A" opacity="0.6"/>
  <polygon points="30,0 190,0 220,60 160,80 60,80 0,60" fill="#1a2e1a" stroke="#4a7040" stroke-width="2"/>
  <g fill="#C4924A" opacity="0.9">
    <polygon points="45,0 55,0 50,-20"/>
    <polygon points="75,0 85,0 80,-20"/>
    <polygon points="105,0 115,0 110,-20"/>
    <polygon points="135,0 145,0 140,-20"/>
    <polygon points="165,0 175,0 170,-20"/>
  </g>
  <polygon points="20,150 200,150 220,100 170,80 50,80 0,100" fill="#152018" stroke="#4a7040" stroke-width="2"/>
  <g fill="#C4924A" opacity="0.9">
    <polygon points="55,150 65,150 60,172"/>
    <polygon points="85,150 95,150 90,172"/>
    <polygon points="115,150 125,150 120,172"/>
    <polygon points="145,150 155,150 150,172"/>
  </g>
  <rect x="60" y="28" width="100" height="28" rx="4" fill="#C4924A" opacity="0.15"/>
  <text x="110" y="47" text-anchor="middle" font-family="Arial Black, sans-serif" font-size="11" font-weight="900" fill="#C4924A" letter-spacing="3">OMEF</text>
  <line x1="0" y1="80" x2="220" y2="80" stroke="#ffd580" stroke-width="2" opacity="0.4"/>
  <line x1="0" y1="80" x2="220" y2="80" stroke="#ffd580" stroke-width="8" opacity="0.08" filter="url(#blur2)"/>
</g>
<g opacity="0.5">
  <ellipse cx="560" cy="510" rx="40" ry="12" fill="#3a2010" transform="rotate(-15,560,510)"/>
  <rect x="590" y="500" width="80" height="18" rx="3" fill="#4a2810" transform="rotate(8,590,500)"/>
  <rect x="680" y="515" width="55" height="14" rx="3" fill="#3a2010" transform="rotate(-5,680,515)"/>
  <ellipse cx="760" cy="505" rx="25" ry="8" fill="#4a2810" transform="rotate(12,760,505)"/>
</g>
<g opacity="0.35" fill="#d4a050">
  <circle cx="640" cy="340" r="3"/>
  <circle cx="658" cy="325" r="2"/>
  <circle cx="648" cy="312" r="1.5"/>
  <circle cx="672" cy="350" r="2.5"/>
  <circle cx="628" cy="356" r="1.5"/>
  <circle cx="690" cy="335" r="2"/>
</g>
<rect x="0" y="560" width="1200" height="115" fill="#050e06" opacity="0.7"/>
<g>
  <text x="72" y="490" font-family="Arial, sans-serif" font-size="11" font-weight="700" fill="#C4924A" letter-spacing="4" opacity="0.9">CESOIE FORESTALI</text>
  <text x="70" y="540" font-family="Arial Black, sans-serif" font-size="52" font-weight="900" fill="#FFFFFF" letter-spacing="-1">Cesoie</text>
  <text x="72" y="572" font-family="Arial, sans-serif" font-size="15" fill="#a0b8a0" letter-spacing="0.5">Taglio preciso su ogni tonnellaggio — Mini 1–20 ton</text>
</g>
<g transform="translate(72,600)">
  <rect width="110" height="26" rx="13" fill="#1a4020" stroke="#3a7040" stroke-width="1"/>
  <circle cx="16" cy="13" r="5" fill="#4ade80"/>
  <text x="26" y="17.5" font-family="Arial, sans-serif" font-size="11" font-weight="600" fill="#86efac">Disponibile</text>
</g>
<text x="1130" y="46" text-anchor="end" font-family="Arial Black, sans-serif" font-size="14" font-weight="900" fill="#C4924A" letter-spacing="3" opacity="0.7">OMEF GROUP</text>
<text x="1130" y="62" text-anchor="end" font-family="Arial, sans-serif" font-size="9" fill="#6a8a6a" letter-spacing="3">MADE IN ITALY</text>
</svg>
