<svg viewBox="0 0 1200 675" xmlns="http://www.w3.org/2000/svg" role="img"><title>OMEF Legna — spaccalegna idraulico</title>
<defs>
  <linearGradient id="bg3" x1="0.2" y1="0" x2="0.8" y2="1"><stop offset="0%" stop-color="#160e04"/><stop offset="100%" stop-color="#1e1808"/></linearGradient>
  <radialGradient id="warmglow" cx="55%" cy="45%" r="50%"><stop offset="0%" stop-color="#d46010" stop-opacity="0.3"/><stop offset="100%" stop-color="#160e04" stop-opacity="0"/></radialGradient>
</defs>
<rect width="1200" height="675" fill="url(#bg3)"/>
<rect width="1200" height="675" fill="url(#warmglow)"/>
<g opacity="0.3">
  <rect x="800" y="300" width="350" height="60" rx="8" fill="#4a2808" transform="rotate(-3,975,330)"/>
  <rect x="790" y="340" width="360" height="55" rx="8" fill="#3e2005" transform="rotate(2,970,367)"/>
  <rect x="800" y="375" width="350" height="55" rx="8" fill="#4a2808" transform="rotate(-1,975,402)"/>
  <rect x="785" y="410" width="365" height="58" rx="8" fill="#3e2005" transform="rotate(3,967,439)"/>
  <circle cx="810" cy="330" r="28" fill="#3a1c04" stroke="#6a3810" stroke-width="2"/>
  <circle cx="810" cy="330" r="18" fill="#2e1402" stroke="#5a2e08" stroke-width="1"/>
  <circle cx="815" cy="367" r="26" fill="#3a1c04" stroke="#6a3810" stroke-width="2"/>
  <circle cx="815" cy="367" r="16" fill="#2e1402"/>
  <circle cx="808" cy="402" r="27" fill="#3a1c04" stroke="#6a3810" stroke-width="2"/>
  <circle cx="808" cy="402" r="17" fill="#2e1402"/>
</g>
<g transform="translate(300,200)">
  <rect x="0" y="180" width="480" height="50" rx="8" fill="#2a1c08" stroke="#5a3818" stroke-width="2"/>
  <circle cx="80" cy="240" r="35" fill="#1a1205" stroke="#4a3010" stroke-width="3"/>
  <circle cx="80" cy="240" r="20" fill="#241808" stroke="#3a2808" stroke-width="2"/>
  <circle cx="400" cy="240" r="35" fill="#1a1205" stroke="#4a3010" stroke-width="3"/>
  <circle cx="400" cy="240" r="20" fill="#241808" stroke="#3a2808" stroke-width="2"/>
  <rect x="30" y="140" width="420" height="55" rx="6" fill="#2e2008" stroke="#5a3818" stroke-width="2"/>
  <rect x="280" y="80" width="120" height="75" rx="8" fill="#2a1808" stroke="#5a3818" stroke-width="2"/>
  <rect x="180" y="155" width="200" height="28" rx="5" fill="#C4924A" opacity="0.8"/>
  <rect x="160" y="158" width="60" height="22" rx="4" fill="#d4a050" opacity="0.9"/>
  <polygon points="100,100 150,100 130,200 120,200" fill="#C4924A" opacity="0.95"/>
  <polygon points="120,100 170,100 150,200 140,200" fill="#d4a050" opacity="0.7"/>
  <ellipse cx="260" cy="163" rx="55" ry="30" fill="#5a3010" stroke="#7a4818" stroke-width="2"/>
  <rect x="205" y="160" width="110" height="180" rx="6" fill="#4a2808"/>
  <ellipse cx="260" cy="340" rx="55" ry="28" fill="#4a2808" stroke="#6a3818" stroke-width="2"/>
  <ellipse cx="260" cy="163" rx="40" ry="20" fill="none" stroke="#6a3818" stroke-width="1" opacity="0.5"/>
  <ellipse cx="260" cy="163" rx="25" ry="12" fill="none" stroke="#5a2e10" stroke-width="1" opacity="0.4"/>
  <line x1="260" y1="120" x2="258" y2="340" stroke="#d4a050" stroke-width="2" opacity="0.6"/>
  <line x1="264" y1="120" x2="262" y2="240" stroke="#e0b060" stroke-width="1" opacity="0.4"/>
  <g fill="#8a5020" opacity="0.6">
    <polygon points="100,145 90,130 115,140"/>
    <polygon points="85,160 72,148 98,155"/>
    <polygon points="95,175 80,165 105,170"/>
  </g>
  <path d="M280,100 Q250,80 230,100" stroke="#C4924A" stroke-width="5" fill="none" opacity="0.6" stroke-linecap="round"/>
  <path d="M390,110 Q410,90 430,110" stroke="#C4924A" stroke-width="5" fill="none" opacity="0.6" stroke-linecap="round"/>
  <rect x="290" y="148" width="80" height="22" rx="4" fill="#C4924A" opacity="0.15"/>
  <text x="330" y="163" text-anchor="middle" font-family="Arial Black, sans-serif" font-size="9" font-weight="900" fill="#C4924A" letter-spacing="3">OMEF</text>
</g>
<ellipse cx="600" cy="600" rx="400" ry="50" fill="#3a1c06" opacity="0.4"/>
<rect x="0" y="580" width="1200" height="95" fill="#0e0804" opacity="0.75"/>
<g opacity="0.5" fill="#ff8020">
  <circle cx="495" cy="350" r="2.5"/>
  <circle cx="510" cy="335" r="1.5"/>
  <circle cx="480" cy="365" r="2"/>
  <circle cx="520" cy="355" r="1"/>
  <circle cx="488" cy="340" r="1.5"/>
</g>
<g>
  <text x="72" y="490" font-family="Arial, sans-serif" font-size="11" font-weight="700" fill="#C4924A" letter-spacing="4">SPACCALEGNA E PINZE LEGNA</text>
  <text x="70" y="542" font-family="Arial Black, sans-serif" font-size="52" font-weight="900" fill="#FFFFFF" letter-spacing="-1">Legna</text>
  <text x="72" y="574" font-family="Arial, sans-serif" font-size="15" fill="#b09060" letter-spacing="0.5">Processazione e movimentazione del legname — Mini 1–12 ton</text>
</g>
<g transform="translate(72,600)">
  <rect width="110" height="26" rx="13" fill="#1a4020" stroke="#3a7040" stroke-width="1"/>
  <circle cx="16" cy="13" r="5" fill="#4ade80"/>
  <text x="26" y="17.5" font-family="Arial, sans-serif" font-size="11" font-weight="600" fill="#86efac">Disponibile</text>
</g>
<text x="1130" y="46" text-anchor="end" font-family="Arial Black, sans-serif" font-size="14" font-weight="900" fill="#C4924A" letter-spacing="3" opacity="0.7">OMEF GROUP</text>
<text x="1130" y="62" text-anchor="end" font-family="Arial, sans-serif" font-size="9" fill="#8a7050" letter-spacing="3">MADE IN ITALY</text>
</svg>
