<svg viewBox="0 0 1200 675" xmlns="http://www.w3.org/2000/svg" role="img"><title>OMEF Potatura — barre falcianti</title>
<defs>
  <linearGradient id="bg4" x1="0" y1="0" x2="0.5" y2="1"><stop offset="0%" stop-color="#081408"/><stop offset="100%" stop-color="#142818"/></linearGradient>
  <radialGradient id="dusk" cx="70%" cy="20%" r="55%"><stop offset="0%" stop-color="#e8800a" stop-opacity="0.28"/><stop offset="100%" stop-color="#081408" stop-opacity="0"/></radialGradient>
</defs>
<rect width="1200" height="675" fill="url(#bg4)"/>
<rect width="1200" height="675" fill="url(#dusk)"/>
<rect x="0" y="0" width="1200" height="300" fill="#100808" opacity="0.3"/>
<g fill="#0a1a08" opacity="0.6">
  <rect x="900" y="50" width="50" height="500" rx="6"/>
  <ellipse cx="925" cy="80" rx="80" ry="90"/>
  <rect x="1000" y="100" width="40" height="450" rx="5"/>
  <ellipse cx="1020" cy="130" rx="65" ry="75"/>
  <rect x="1070" y="80" width="45" height="470" rx="5"/>
  <ellipse cx="1090" cy="110" rx="70" ry="80"/>
  <rect x="1140" y="120" width="60" height="430" rx="6"/>
  <rect x="40" y="120" width="38" height="430" rx="5"/>
  <ellipse cx="59" cy="148" rx="60" ry="70"/>
  <rect x="90" y="100" width="42" height="450" rx="5"/>
  <ellipse cx="111" cy="128" rx="68" ry="78"/>
</g>
<polygon points="400,540 800,540 850,675 350,675" fill="#141c10" opacity="0.8"/>
<line x1="600" y1="540" x2="600" y2="675" stroke="#C4924A" stroke-width="3" stroke-dasharray="20,15" opacity="0.4"/>
<g transform="translate(150,340)">
  <rect x="0" y="80" width="200" height="110" rx="8" fill="#162010" stroke="#2a3818" stroke-width="2"/>
  <rect x="20" y="60" width="160" height="60" rx="6" fill="#1c2a14"/>
  <rect x="50" y="65" width="60" height="40" rx="4" fill="#0a1208" stroke="#2a3818" stroke-width="1" opacity="0.9"/>
  <rect x="-10" y="175" width="220" height="40" rx="10" fill="#0e1608" stroke="#2a3818" stroke-width="2"/>
  <g fill="#182010" stroke="#2a3818" stroke-width="1">
    <rect x="5" y="180" width="20" height="28" rx="2"/>
    <rect x="32" y="180" width="20" height="28" rx="2"/>
    <rect x="59" y="180" width="20" height="28" rx="2"/>
    <rect x="86" y="180" width="20" height="28" rx="2"/>
    <rect x="113" y="180" width="20" height="28" rx="2"/>
    <rect x="140" y="180" width="20" height="28" rx="2"/>
    <rect x="167" y="180" width="20" height="28" rx="2"/>
  </g>
  <rect x="160" y="40" width="160" height="20" rx="5" fill="#1a2814" stroke="#2a3818" stroke-width="1.5" transform="rotate(8,160,40)"/>
  <rect x="250" y="60" width="120" height="16" rx="4" fill="#162010" stroke="#2a3818" stroke-width="1.5" transform="rotate(25,250,60)"/>
</g>
<g transform="translate(360,220)">
  <rect x="0" y="20" width="60" height="100" rx="6" fill="#1e2e14" stroke="#3a4828" stroke-width="2"/>
  <rect x="55" y="0" width="460" height="70" rx="8" fill="#1a2c12" stroke="#3a5028" stroke-width="2.5"/>
  <rect x="60" y="62" width="450" height="20" rx="4" fill="#2a3e1a" stroke="#4a5e30" stroke-width="1"/>
  <g fill="#C4924A" opacity="0.9">
    <polygon points="75,0 90,0 82,-22"/>
    <polygon points="102,0 117,0 109,-22"/>
    <polygon points="129,0 144,0 136,-22"/>
    <polygon points="156,0 171,0 163,-22"/>
    <polygon points="183,0 198,0 190,-22"/>
    <polygon points="210,0 225,0 217,-22"/>
    <polygon points="237,0 252,0 244,-22"/>
    <polygon points="264,0 279,0 271,-22"/>
    <polygon points="291,0 306,0 298,-22"/>
    <polygon points="318,0 333,0 325,-22"/>
    <polygon points="345,0 360,0 352,-22"/>
    <polygon points="372,0 387,0 379,-22"/>
    <polygon points="399,0 414,0 406,-22"/>
    <polygon points="426,0 441,0 433,-22"/>
    <polygon points="453,0 468,0 460,-22"/>
    <polygon points="480,0 495,0 487,-22"/>
  </g>
  <line x1="60" y1="2" x2="510" y2="2" stroke="#ffd580" stroke-width="2" opacity="0.5"/>
  <rect x="240" y="8" width="80" height="54" rx="6" fill="#243218" stroke="#3a5028" stroke-width="2"/>
  <text x="280" y="40" text-anchor="middle" font-family="Arial Black, sans-serif" font-size="8" font-weight="900" fill="#C4924A" letter-spacing="2" opacity="0.7">OMEF</text>
  <path d="M30,50 Q20,30 0,35" stroke="#C4924A" stroke-width="4" fill="none" opacity="0.6" stroke-linecap="round"/>
  <rect x="510" y="20" width="30" height="30" rx="4" fill="#2a3e1a" stroke="#3a5028" stroke-width="1"/>
</g>
<g opacity="0.45">
  <rect x="720" y="360" width="70" height="12" rx="4" fill="#3a5a20" transform="rotate(30,755,366)"/>
  <rect x="750" y="380" width="50" height="10" rx="3" fill="#4a6a28" transform="rotate(-20,775,385)"/>
  <ellipse cx="810" cy="370" rx="18" ry="8" fill="#3a5020" transform="rotate(45,810,370)"/>
  <rect x="780" y="395" width="40" height="8" rx="3" fill="#4a6828" transform="rotate(10,800,399)"/>
  <ellipse cx="840" cy="390" rx="12" ry="5" fill="#507030" transform="rotate(-30,840,390)"/>
</g>
<g opacity="0.3" fill="#1e3010">
  <ellipse cx="600" cy="570" rx="200" ry="30"/>
  <ellipse cx="400" cy="580" rx="150" ry="25"/>
  <ellipse cx="800" cy="560" rx="180" ry="28"/>
</g>
<rect x="0" y="580" width="1200" height="95" fill="#050d04" opacity="0.75"/>
<g>
  <text x="72" y="490" font-family="Arial, sans-serif" font-size="11" font-weight="700" fill="#C4924A" letter-spacing="4">BARRE FALCIANTI E POTATURA</text>
  <text x="70" y="542" font-family="Arial Black, sans-serif" font-size="52" font-weight="900" fill="#FFFFFF" letter-spacing="-1">Potatura</text>
  <text x="72" y="574" font-family="Arial, sans-serif" font-size="15" fill="#a09870" letter-spacing="0.5">Taglio professionale di rami e vegetazione — Mini 1–8 ton</text>
</g>
<g transform="translate(72,600)">
  <rect width="110" height="26" rx="13" fill="#1a4020" stroke="#3a7040" stroke-width="1"/>
  <circle cx="16" cy="13" r="5" fill="#4ade80"/>
  <text x="26" y="17.5" font-family="Arial, sans-serif" font-size="11" font-weight="600" fill="#86efac">Disponibile</text>
</g>
<text x="1130" y="46" text-anchor="end" font-family="Arial Black, sans-serif" font-size="14" font-weight="900" fill="#C4924A" letter-spacing="3" opacity="0.7">OMEF GROUP</text>
<text x="1130" y="62" text-anchor="end" font-family="Arial, sans-serif" font-size="9" fill="#6a8a5a" letter-spacing="3">MADE IN ITALY</text>
</svg>
