<svg viewBox="0 0 1200 675" xmlns="http://www.w3.org/2000/svg" role="img"><title>OMEF Terreno — fresaceppi</title>
<defs>
  <linearGradient id="bg5" x1="0" y1="0" x2="0.4" y2="1"><stop offset="0%" stop-color="#100a04"/><stop offset="100%" stop-color="#1a1008"/></linearGradient>
  <radialGradient id="dustglow" cx="50%" cy="55%" r="40%"><stop offset="0%" stop-color="#a06020" stop-opacity="0.35"/><stop offset="100%" stop-color="#100a04" stop-opacity="0"/></radialGradient>
  <filter id="bf5"><feGaussianBlur stdDeviation="16"/></filter>
  <filter id="bf5b"><feGaussianBlur stdDeviation="5"/></filter>
</defs>
<rect width="1200" height="675" fill="url(#bg5)"/>
<rect width="1200" height="675" fill="url(#dustglow)"/>
<g opacity="0.4">
  <rect x="0" y="480" width="1200" height="195" fill="#1a0e06"/>
  <g stroke="#2e1a0a" stroke-width="1" opacity="0.6">
    <line x1="0" y1="500" x2="1200" y2="495"/>
    <line x1="0" y1="520" x2="1200" y2="515"/>
    <line x1="0" y1="540" x2="1200" y2="538"/>
  </g>
</g>
<g transform="translate(480,380)">
  <ellipse cx="120" cy="20" rx="110" ry="40" fill="#3a2010" stroke="#5a3018" stroke-width="3"/>
  <rect x="10" y="18" width="220" height="100" rx="0" fill="#2e1808"/>
  <ellipse cx="120" cy="118" rx="110" ry="38" fill="#281408"/>
  <g stroke="#3e2010" stroke-width="1.5" opacity="0.7" fill="none">
    <path d="M30,30 Q60,20 90,35 Q120,20 150,30 Q180,20 210,30"/>
    <path d="M25,55 Q55,45 85,58 Q115,42 145,55 Q175,44 215,55"/>
    <path d="M28,80 Q58,70 88,82 Q118,68 148,80 Q178,70 218,80"/>
  </g>
  <ellipse cx="120" cy="20" rx="80" ry="28" fill="none" stroke="#5a3018" stroke-width="1.5" opacity="0.5"/>
  <ellipse cx="120" cy="20" rx="55" ry="20" fill="none" stroke="#4a2810" stroke-width="1" opacity="0.4"/>
  <ellipse cx="120" cy="20" rx="30" ry="12" fill="none" stroke="#3e2008" stroke-width="1" opacity="0.3"/>
</g>
<g transform="translate(310,180)">
  <rect x="0" y="0" width="80" height="220" rx="10" fill="#1e1a10" stroke="#3a3018" stroke-width="2"/>
  <rect x="75" y="60" width="200" height="30" rx="7" fill="#241e10" stroke="#3a3018" stroke-width="2"/>
  <rect x="80" y="30" width="90" height="20" rx="5" fill="#C4924A" opacity="0.7"/>
  <rect x="270" y="40" width="160" height="180" rx="12" fill="#1e1a10" stroke="#3a3018" stroke-width="2.5"/>
  <circle cx="350" cy="200" r="90" fill="#1a1608" stroke="#3a3018" stroke-width="3"/>
  <circle cx="350" cy="200" r="72" fill="#141208" stroke="#2e2810" stroke-width="2"/>
  <g fill="#C4924A" opacity="0.9">
    <rect x="340" y="112" width="20" height="30" rx="3" transform="rotate(0,350,200)"/>
    <rect x="340" y="112" width="20" height="30" rx="3" transform="rotate(45,350,200)"/>
    <rect x="340" y="112" width="20" height="30" rx="3" transform="rotate(90,350,200)"/>
    <rect x="340" y="112" width="20" height="30" rx="3" transform="rotate(135,350,200)"/>
    <rect x="340" y="112" width="20" height="30" rx="3" transform="rotate(180,350,200)"/>
    <rect x="340" y="112" width="20" height="30" rx="3" transform="rotate(225,350,200)"/>
    <rect x="340" y="112" width="20" height="30" rx="3" transform="rotate(270,350,200)"/>
    <rect x="340" y="112" width="20" height="30" rx="3" transform="rotate(315,350,200)"/>
  </g>
  <circle cx="350" cy="200" r="22" fill="#1e1a10" stroke="#C4924A" stroke-width="2" opacity="0.7"/>
  <circle cx="350" cy="200" r="10" fill="#C4924A" opacity="0.5"/>
  <path d="M280,80 Q260,60 240,80" stroke="#C4924A" stroke-width="4" fill="none" opacity="0.6" stroke-linecap="round"/>
  <path d="M420,100 Q440,80 460,100" stroke="#C4924A" stroke-width="4" fill="none" opacity="0.6" stroke-linecap="round"/>
  <rect x="300" y="55" width="100" height="25" rx="4" fill="#C4924A" opacity="0.12"/>
  <text x="350" y="72" text-anchor="middle" font-family="Arial Black, sans-serif" font-size="9" font-weight="900" fill="#C4924A" letter-spacing="3" opacity="0.8">OMEF</text>
</g>
<g opacity="0.65">
  <polygon points="460,420 440,400 455,395" fill="#8a5020" transform="rotate(-20,455,408)"/>
  <polygon points="450,410 428,388 445,385" fill="#7a4018" transform="rotate(15,439,398)"/>
  <polygon points="470,430 448,408 464,405" fill="#9a5828" transform="rotate(-35,461,419)"/>
  <polygon points="455,440 432,416 449,413" fill="#8a4820" transform="rotate(25,444,428)"/>
</g>
<ellipse cx="580" cy="470" rx="160" ry="50" fill="#c08040" opacity="0.12" filter="url(#bf5)"/>
<ellipse cx="560" cy="490" rx="100" ry="30" fill="#c08040" opacity="0.08" filter="url(#bf5b)"/>
<g opacity="0.5" fill="#8a5020">
  <circle cx="500" cy="440" r="3"/>
  <circle cx="520" cy="425" r="2"/>
  <circle cx="490" cy="455" r="2.5"/>
  <circle cx="535" cy="445" r="1.5"/>
  <circle cx="510" cy="460" r="2"/>
  <circle cx="545" cy="430" r="3"/>
  <circle cx="475" cy="450" r="1.5"/>
</g>
<rect x="0" y="570" width="1200" height="105" fill="#080604" opacity="0.8"/>
<g>
  <text x="72" y="490" font-family="Arial, sans-serif" font-size="11" font-weight="700" fill="#C4924A" letter-spacing="4">FRESACEPPI E LAVORAZIONE TERRENO</text>
  <text x="70" y="542" font-family="Arial Black, sans-serif" font-size="52" font-weight="900" fill="#FFFFFF" letter-spacing="-1">Terreno</text>
  <text x="72" y="574" font-family="Arial, sans-serif" font-size="15" fill="#b08850" letter-spacing="0.5">Fresatura ceppi e preparazione suolo — Mini 1–15 ton</text>
</g>
<g transform="translate(72,600)">
  <rect width="110" height="26" rx="13" fill="#1a4020" stroke="#3a7040" stroke-width="1"/>
  <circle cx="16" cy="13" r="5" fill="#4ade80"/>
  <text x="26" y="17.5" font-family="Arial, sans-serif" font-size="11" font-weight="600" fill="#86efac">Disponibile</text>
</g>
<text x="1130" y="46" text-anchor="end" font-family="Arial Black, sans-serif" font-size="14" font-weight="900" fill="#C4924A" letter-spacing="3" opacity="0.7">OMEF GROUP</text>
<text x="1130" y="62" text-anchor="end" font-family="Arial, sans-serif" font-size="9" fill="#7a6040" letter-spacing="3">MADE IN ITALY</text>
</svg>
