<svg viewBox="0 0 1200 675" xmlns="http://www.w3.org/2000/svg" role="img"><title>OMEF Trince — categoria prodotto</title>
<defs>
  <linearGradient id="bg2" x1="0" y1="0" x2="0.3" y2="1"><stop offset="0%" stop-color="#0c1a08"/><stop offset="100%" stop-color="#1e3514"/></linearGradient>
  <radialGradient id="sunleak" cx="78%" cy="25%" r="40%"><stop offset="0%" stop-color="#b8d060" stop-opacity="0.22"/><stop offset="100%" stop-color="#0c1a08" stop-opacity="0"/></radialGradient>
  <filter id="gf"><feGaussianBlur stdDeviation="12"/></filter>
</defs>
<rect width="1200" height="675" fill="url(#bg2)"/>
<rect width="1200" height="675" fill="url(#sunleak)"/>
<ellipse cx="600" cy="620" rx="700" ry="120" fill="#0a1206" opacity="0.8"/>
<rect x="0" y="560" width="1200" height="115" fill="#060e04" opacity="0.6"/>
<g opacity="0.25" fill="#1a3010">
  <ellipse cx="100" cy="520" rx="60" ry="30"/>
  <ellipse cx="155" cy="500" rx="45" ry="25"/>
  <ellipse cx="1050" cy="510" rx="65" ry="32"/>
  <ellipse cx="1110" cy="495" rx="50" ry="28"/>
  <rect x="80" y="300" width="30" height="220" rx="4"/>
  <rect x="1090" y="280" width="35" height="240" rx="4"/>
</g>
<rect x="50" y="350" width="260" height="150" rx="10" fill="#162010" stroke="#2a3818" stroke-width="2" opacity="0.9"/>
<rect x="80" y="330" width="200" height="60" rx="8" fill="#1a2814" opacity="0.9"/>
<rect x="60" y="480" width="280" height="30" rx="6" fill="#1c2a14"/>
<rect x="30" y="490" width="320" height="50" rx="12" fill="#121a0c" stroke="#2a3818" stroke-width="2"/>
<g fill="#1e2c14" stroke="#2a3818" stroke-width="1">
  <rect x="45" y="498" width="28" height="34" rx="3"/>
  <rect x="82" y="498" width="28" height="34" rx="3"/>
  <rect x="119" y="498" width="28" height="34" rx="3"/>
  <rect x="156" y="498" width="28" height="34" rx="3"/>
  <rect x="193" y="498" width="28" height="34" rx="3"/>
  <rect x="230" y="498" width="28" height="34" rx="3"/>
  <rect x="267" y="498" width="28" height="34" rx="3"/>
  <rect x="304" y="498" width="28" height="34" rx="3"/>
</g>
<rect x="260" y="300" width="300" height="28" rx="7" fill="#1a2814" stroke="#2a3818" stroke-width="2" transform="rotate(12,260,300)"/>
<rect x="400" y="340" width="200" height="22" rx="6" fill="#162010" stroke="#2a3818" stroke-width="2" transform="rotate(30,400,340)"/>
<g transform="translate(480,390)">
  <rect x="0" y="0" width="280" height="140" rx="14" fill="#1a2e14" stroke="#3a5030" stroke-width="3"/>
  <rect x="10" y="10" width="260" height="120" rx="10" fill="#142212" opacity="0.9"/>
  <rect x="20" y="25" width="240" height="90" rx="45" fill="#1e3218" stroke="#3a5030" stroke-width="2"/>
  <g fill="#C4924A" opacity="0.85">
    <rect x="40" y="60" width="18" height="32" rx="3" transform="rotate(-20,49,76)"/>
    <rect x="75" y="55" width="18" height="32" rx="3" transform="rotate(10,84,71)"/>
    <rect x="110" y="60" width="18" height="32" rx="3" transform="rotate(-15,119,76)"/>
    <rect x="145" y="55" width="18" height="32" rx="3" transform="rotate(20,154,71)"/>
    <rect x="180" y="60" width="18" height="32" rx="3" transform="rotate(-8,189,76)"/>
    <rect x="215" y="55" width="18" height="32" rx="3" transform="rotate(15,224,71)"/>
  </g>
  <rect x="-10" y="120" width="30" height="20" rx="4" fill="#2a3e22" stroke="#3a5030" stroke-width="1"/>
  <rect x="260" y="120" width="30" height="20" rx="4" fill="#2a3e22" stroke="#3a5030" stroke-width="1"/>
  <rect x="-18" y="20" width="22" height="100" rx="5" fill="#1e3218" stroke="#3a5030" stroke-width="2"/>
  <rect x="276" y="20" width="22" height="100" rx="5" fill="#1e3218" stroke="#3a5030" stroke-width="2"/>
  <text x="140" y="78" text-anchor="middle" font-family="Arial Black, sans-serif" font-size="10" font-weight="900" fill="#C4924A" letter-spacing="4" opacity="0.6">OMEF</text>
</g>
<g opacity="0.55">
  <ellipse cx="770" cy="420" rx="12" ry="5" fill="#5a8030" transform="rotate(-30,770,420)"/>
  <ellipse cx="800" cy="400" rx="8" ry="3" fill="#4a7025" transform="rotate(15,800,400)"/>
  <ellipse cx="755" cy="440" rx="6" ry="2.5" fill="#6a9035" transform="rotate(-45,755,440)"/>
  <ellipse cx="820" cy="415" rx="10" ry="4" fill="#5a8030" transform="rotate(25,820,415)"/>
  <ellipse cx="785" cy="455" rx="7" ry="3" fill="#4a7025" transform="rotate(-10,785,455)"/>
  <ellipse cx="835" cy="440" rx="5" ry="2" fill="#6a9035" transform="rotate(40,835,440)"/>
  <ellipse cx="750" cy="460" rx="9" ry="3.5" fill="#5a8030" transform="rotate(-20,750,460)"/>
</g>
<ellipse cx="640" cy="490" rx="120" ry="35" fill="#a0b880" opacity="0.07" filter="url(#gf)"/>
<g>
  <text x="72" y="490" font-family="Arial, sans-serif" font-size="11" font-weight="700" fill="#C4924A" letter-spacing="4">TRINCE A MAZZE E COLTELLI</text>
  <text x="70" y="542" font-family="Arial Black, sans-serif" font-size="52" font-weight="900" fill="#FFFFFF" letter-spacing="-1">Trince</text>
  <text x="72" y="574" font-family="Arial, sans-serif" font-size="15" fill="#90a880" letter-spacing="0.5">Trinciatura professionale di vegetazione — Mini 1–15 ton</text>
</g>
<g transform="translate(72,600)">
  <rect width="110" height="26" rx="13" fill="#1a4020" stroke="#3a7040" stroke-width="1"/>
  <circle cx="16" cy="13" r="5" fill="#4ade80"/>
  <text x="26" y="17.5" font-family="Arial, sans-serif" font-size="11" font-weight="600" fill="#86efac">Disponibile</text>
</g>
<text x="1130" y="46" text-anchor="end" font-family="Arial Black, sans-serif" font-size="14" font-weight="900" fill="#C4924A" letter-spacing="3" opacity="0.7">OMEF GROUP</text>
<text x="1130" y="62" text-anchor="end" font-family="Arial, sans-serif" font-size="9" fill="#6a8a6a" letter-spacing="3">MADE IN ITALY</text>
</svg>
