<svg viewBox="0 0 1200 675" xmlns="http://www.w3.org/2000/svg" role="img"><title>OMEF Usato — attrezzatura ricondizionata</title>
<defs>
  <linearGradient id="bg6" x1="0" y1="0" x2="0.6" y2="1"><stop offset="0%" stop-color="#0a0c10"/><stop offset="100%" stop-color="#141820"/></linearGradient>
  <radialGradient id="workshoplight" cx="50%" cy="30%" r="45%"><stop offset="0%" stop-color="#e0b040" stop-opacity="0.4"/><stop offset="100%" stop-color="#0a0c10" stop-opacity="0"/></radialGradient>
  <radialGradient id="spotleft" cx="25%" cy="15%" r="30%"><stop offset="0%" stop-color="#c09030" stop-opacity="0.2"/><stop offset="100%" stop-color="transparent"/></radialGradient>
  <filter id="bf6"><feGaussianBlur stdDeviation="22"/></filter>
</defs>
<rect width="1200" height="675" fill="url(#bg6)"/>
<rect width="1200" height="675" fill="url(#workshoplight)"/>
<rect width="1200" height="675" fill="url(#spotleft)"/>
<rect x="0" y="0" width="1200" height="480" fill="#0e1014" opacity="0.6"/>
<g>
  <rect x="280" y="0" width="80" height="12" rx="3" fill="#e0c060" opacity="0.7"/>
  <rect x="580" y="0" width="80" height="12" rx="3" fill="#e0c060" opacity="0.7"/>
  <rect x="880" y="0" width="80" height="12" rx="3" fill="#e0c060" opacity="0.6"/>
  <polygon points="280,12 360,12 420,350 220,350" fill="#e0c060" opacity="0.04"/>
  <polygon points="580,12 660,12 730,350 510,350" fill="#e0c060" opacity="0.05"/>
  <polygon points="880,12 960,12 1020,350 800,350" fill="#e0c060" opacity="0.04"/>
</g>
<rect x="0" y="460" width="1200" height="215" fill="#0c0e12" opacity="0.9"/>
<g stroke="#1e2028" stroke-width="1" opacity="0.5">
  <line x1="0" y1="480" x2="1200" y2="480"/>
  <line x1="0" y1="520" x2="1200" y2="520"/>
  <line x1="200" y1="460" x2="200" y2="675"/>
  <line x1="500" y1="460" x2="500" y2="675"/>
  <line x1="800" y1="460" x2="800" y2="675"/>
  <line x1="1100" y1="460" x2="1100" y2="675"/>
</g>
<rect x="50" y="80" width="200" height="360" rx="6" fill="#0e1218" stroke="#1e2430" stroke-width="2" opacity="0.7"/>
<g stroke="#2a3040" stroke-width="2" opacity="0.6">
  <line x1="50" y1="160" x2="250" y2="160"/>
  <line x1="50" y1="240" x2="250" y2="240"/>
  <line x1="50" y1="320" x2="250" y2="320"/>
</g>
<g fill="#C4924A" opacity="0.35">
  <rect x="80" y="90" width="8" height="60" rx="2"/>
  <rect x="110" y="90" width="8" height="55" rx="2"/>
  <rect x="140" y="90" width="8" height="65" rx="2"/>
  <rect x="170" y="90" width="8" height="50" rx="2"/>
  <rect x="200" y="90" width="8" height="58" rx="2"/>
  <rect x="80" y="170" width="8" height="60" rx="2"/>
  <rect x="120" y="170" width="8" height="55" rx="2"/>
  <rect x="160" y="170" width="8" height="65" rx="2"/>
  <rect x="200" y="170" width="8" height="48" rx="2"/>
</g>
<g transform="translate(320,140)">
  <rect x="-20" y="300" width="560" height="30" rx="4" fill="#1a1c20" stroke="#2a2e38" stroke-width="1.5"/>
  <rect x="20" y="295" width="40" height="10" rx="2" fill="#14161a"/>
  <rect x="100" y="295" width="40" height="10" rx="2" fill="#14161a"/>
  <rect x="380" y="295" width="40" height="10" rx="2" fill="#14161a"/>
  <rect x="460" y="295" width="40" height="10" rx="2" fill="#14161a"/>
  <rect x="40" y="60" width="440" height="230" rx="16" fill="#1c2820" stroke="#3a4838" stroke-width="3"/>
  <rect x="52" y="72" width="416" height="206" rx="12" fill="#162018" opacity="0.95"/>
  <rect x="-10" y="100" width="56" height="140" rx="8" fill="#1e2a1e" stroke="#3a4838" stroke-width="2"/>
  <rect x="0" y="118" width="20" height="104" rx="4" fill="#C4924A" opacity="0.65"/>
  <rect x="24" y="115" width="16" height="110" rx="3" fill="#d4a050" opacity="0.4"/>
  <rect x="474" y="100" width="56" height="140" rx="8" fill="#1e2a1e" stroke="#3a4838" stroke-width="2"/>
  <rect x="490" y="118" width="20" height="104" rx="4" fill="#C4924A" opacity="0.65"/>
  <rect x="510" y="115" width="16" height="110" rx="3" fill="#d4a050" opacity="0.4"/>
  <polygon points="60,60 460,60 520,0 480,-20 80,-20 40,0" fill="#1a2818" stroke="#4a6038" stroke-width="2"/>
  <g fill="#C4924A" opacity="0.85">
    <polygon points="90,-20 106,-20 98,-44"/>
    <polygon points="130,-20 146,-20 138,-44"/>
    <polygon points="170,-20 186,-20 178,-44"/>
    <polygon points="210,-20 226,-20 218,-44"/>
    <polygon points="250,-20 266,-20 258,-44"/>
    <polygon points="290,-20 306,-20 298,-44"/>
    <polygon points="330,-20 346,-20 338,-44"/>
    <polygon points="370,-20 386,-20 378,-44"/>
    <polygon points="410,-20 426,-20 418,-44"/>
  </g>
  <polygon points="50,290 470,290 530,350 490,370 70,370 30,350" fill="#152015" stroke="#3a5030" stroke-width="2"/>
  <g fill="#C4924A" opacity="0.85">
    <polygon points="90,370 106,370 98,394"/>
    <polygon points="130,370 146,370 138,394"/>
    <polygon points="170,370 186,370 178,394"/>
    <polygon points="210,370 226,370 218,394"/>
    <polygon points="250,370 266,370 258,394"/>
    <polygon points="290,370 306,370 298,394"/>
    <polygon points="330,370 346,370 338,394"/>
    <polygon points="370,370 386,370 378,394"/>
    <polygon points="410,370 426,370 418,394"/>
  </g>
  <rect x="160" y="140" width="200" height="70" rx="8" fill="#C4924A" opacity="0.12" stroke="#C4924A" stroke-width="1"/>
  <text x="260" y="175" text-anchor="middle" font-family="Arial Black, sans-serif" font-size="24" font-weight="900" fill="#C4924A" letter-spacing="6">OMEF</text>
  <text x="260" y="196" text-anchor="middle" font-family="Arial, sans-serif" font-size="9" fill="#a07840" letter-spacing="3">BASALUZZO · ITALY</text>
  <rect x="380" y="130" width="72" height="72" rx="36" fill="#1e3010" stroke="#4ade80" stroke-width="2"/>
  <text x="416" y="155" text-anchor="middle" font-family="Arial Black, sans-serif" font-size="8" fill="#4ade80" letter-spacing="1">CERTIF.</text>
  <text x="416" y="170" text-anchor="middle" font-family="Arial Black, sans-serif" font-size="8" fill="#4ade80" letter-spacing="1">OMEF</text>
  <text x="416" y="185" text-anchor="middle" font-family="Arial, sans-serif" font-size="7" fill="#86efac">2026</text>
</g>
<rect x="280" y="460" width="560" height="180" fill="#C4924A" opacity="0.03" filter="url(#bf6)"/>
<rect x="0" y="570" width="1200" height="105" fill="#060608" opacity="0.85"/>
<g>
  <text x="72" y="490" font-family="Arial, sans-serif" font-size="11" font-weight="700" fill="#C4924A" letter-spacing="4">ATTREZZATURA USATA GARANTITA</text>
  <text x="70" y="542" font-family="Arial Black, sans-serif" font-size="52" font-weight="900" fill="#FFFFFF" letter-spacing="-1">Usato</text>
  <text x="72" y="574" font-family="Arial, sans-serif" font-size="15" fill="#8090a8" letter-spacing="0.5">Revisionato e certificato OMEF — pronto all'uso</text>
</g>
<g transform="translate(72,600)">
  <rect width="136" height="26" rx="13" fill="#1a4020" stroke="#3a7040" stroke-width="1"/>
  <circle cx="16" cy="13" r="5" fill="#4ade80"/>
  <text x="26" y="17.5" font-family="Arial, sans-serif" font-size="11" font-weight="600" fill="#86efac">Usato Garantito</text>
</g>
<text x="1130" y="46" text-anchor="end" font-family="Arial Black, sans-serif" font-size="14" font-weight="900" fill="#C4924A" letter-spacing="3" opacity="0.7">OMEF GROUP</text>
<text x="1130" y="62" text-anchor="end" font-family="Arial, sans-serif" font-size="9" fill="#607080" letter-spacing="3">MADE IN ITALY</text>
</svg>
